<mxfile host="app.diagrams.net" modified="2023-04-28T04:48:42.098Z" agent="Mozilla/5.0 (Windows NT 10.0; Win64; x64) AppleWebKit/537.36 (KHTML, like Gecko) Chrome/111.0.0.0 Safari/537.36 OPR/97.0.0.0" etag="VP5Qqd8-6gJHo4MoGW9m" version="21.1.6" type="github">
  <diagram name="PÃ¡gina-1" id="wGctj-Va2rcf4u5bNOAz">
    <mxGraphModel dx="480" dy="455" grid="1" gridSize="10" guides="1" tooltips="1" connect="1" arrows="1" fold="1" page="1" pageScale="1" pageWidth="827" pageHeight="1169" math="0" shadow="0">
      <root>
        <mxCell id="0" />
        <mxCell id="1" parent="0" />
        <mxCell id="bFQHDyqKPCQwZGILd-3Y-99" value="" style="rounded=0;whiteSpace=wrap;html=1;" vertex="1" parent="1">
          <mxGeometry x="325" y="1340" width="70" height="220" as="geometry" />
        </mxCell>
        <mxCell id="bFQHDyqKPCQwZGILd-3Y-1" value="" style="rounded=0;whiteSpace=wrap;html=1;" vertex="1" parent="1">
          <mxGeometry x="130" y="320" width="1" height="365" as="geometry" />
        </mxCell>
        <mxCell id="bFQHDyqKPCQwZGILd-3Y-2" value="" style="rounded=0;whiteSpace=wrap;html=1;rotation=-90;" vertex="1" parent="1">
          <mxGeometry x="296" y="154" width="1" height="330" as="geometry" />
        </mxCell>
        <mxCell id="bFQHDyqKPCQwZGILd-3Y-3" value="" style="rounded=0;whiteSpace=wrap;html=1;" vertex="1" parent="1">
          <mxGeometry x="460" y="320" width="1" height="273" as="geometry" />
        </mxCell>
        <mxCell id="bFQHDyqKPCQwZGILd-3Y-7" style="rounded=0;orthogonalLoop=1;jettySize=auto;html=1;entryX=0;entryY=1;entryDx=0;entryDy=0;exitX=0.25;exitY=0;exitDx=0;exitDy=0;endArrow=none;endFill=0;" edge="1" parent="1" source="bFQHDyqKPCQwZGILd-3Y-5" target="bFQHDyqKPCQwZGILd-3Y-3">
          <mxGeometry relative="1" as="geometry" />
        </mxCell>
        <mxCell id="bFQHDyqKPCQwZGILd-3Y-5" value="" style="rounded=0;whiteSpace=wrap;html=1;" vertex="1" parent="1">
          <mxGeometry x="336" y="587" width="1" height="100" as="geometry" />
        </mxCell>
        <mxCell id="bFQHDyqKPCQwZGILd-3Y-6" value="" style="rounded=0;whiteSpace=wrap;html=1;rotation=-90;" vertex="1" parent="1">
          <mxGeometry x="279" y="629" width="1" height="115" as="geometry" />
        </mxCell>
        <mxCell id="bFQHDyqKPCQwZGILd-3Y-8" value="" style="rounded=0;whiteSpace=wrap;html=1;" vertex="1" parent="1">
          <mxGeometry x="260" y="330" width="200" height="160" as="geometry" />
        </mxCell>
        <mxCell id="bFQHDyqKPCQwZGILd-3Y-9" value="" style="rounded=0;whiteSpace=wrap;html=1;" vertex="1" parent="1">
          <mxGeometry x="130" y="320" width="70" height="270" as="geometry" />
        </mxCell>
        <mxCell id="bFQHDyqKPCQwZGILd-3Y-10" value="" style="verticalLabelPosition=bottom;html=1;verticalAlign=top;align=center;shape=mxgraph.floorplan.doorLeft;aspect=fixed;rotation=-90;" vertex="1" parent="1">
          <mxGeometry x="134" y="598" width="84.71" height="90" as="geometry" />
        </mxCell>
        <mxCell id="bFQHDyqKPCQwZGILd-3Y-11" value="" style="rounded=0;whiteSpace=wrap;html=1;" vertex="1" parent="1">
          <mxGeometry x="200" y="350" width="60" height="90" as="geometry" />
        </mxCell>
        <mxCell id="bFQHDyqKPCQwZGILd-3Y-13" value="" style="verticalLabelPosition=bottom;html=1;verticalAlign=top;align=center;shape=mxgraph.floorplan.doorLeft;aspect=fixed;rotation=270;flipV=0;flipH=1;" vertex="1" parent="1">
          <mxGeometry x="338.7" y="590" width="75.3" height="80" as="geometry" />
        </mxCell>
        <mxCell id="bFQHDyqKPCQwZGILd-3Y-15" value="" style="rounded=0;whiteSpace=wrap;html=1;" vertex="1" parent="1">
          <mxGeometry x="419" y="499" width="42" height="70" as="geometry" />
        </mxCell>
        <mxCell id="bFQHDyqKPCQwZGILd-3Y-16" value="" style="rounded=0;whiteSpace=wrap;html=1;rotation=90;" vertex="1" parent="1">
          <mxGeometry x="140" y="810" width="240" height="270" as="geometry" />
        </mxCell>
        <mxCell id="bFQHDyqKPCQwZGILd-3Y-17" value="" style="rounded=0;whiteSpace=wrap;html=1;rotation=90;" vertex="1" parent="1">
          <mxGeometry x="253.5" y="966.25" width="90" height="107" as="geometry" />
        </mxCell>
        <mxCell id="bFQHDyqKPCQwZGILd-3Y-19" value="" style="verticalLabelPosition=bottom;align=center;dashed=0;html=1;verticalAlign=top;shape=mxgraph.pid.fittings.viewing_glass;" vertex="1" parent="1">
          <mxGeometry x="210" y="744" width="100" height="50" as="geometry" />
        </mxCell>
        <mxCell id="bFQHDyqKPCQwZGILd-3Y-20" value="" style="rounded=0;whiteSpace=wrap;html=1;rotation=90;" vertex="1" parent="1">
          <mxGeometry x="258" y="929" width="230" height="42.5" as="geometry" />
        </mxCell>
        <mxCell id="bFQHDyqKPCQwZGILd-3Y-21" value="" style="rounded=0;whiteSpace=wrap;html=1;rotation=90;" vertex="1" parent="1">
          <mxGeometry x="338.7" y="680" width="60" height="130" as="geometry" />
        </mxCell>
        <mxCell id="bFQHDyqKPCQwZGILd-3Y-23" value="" style="rounded=0;whiteSpace=wrap;html=1;rotation=90;" vertex="1" parent="1">
          <mxGeometry x="108.7" y="929" width="230" height="42.5" as="geometry" />
        </mxCell>
        <mxCell id="bFQHDyqKPCQwZGILd-3Y-24" value="" style="rounded=0;whiteSpace=wrap;html=1;rotation=90;" vertex="1" parent="1">
          <mxGeometry x="140" y="1070" width="240" height="270" as="geometry" />
        </mxCell>
        <mxCell id="bFQHDyqKPCQwZGILd-3Y-28" value="" style="rounded=0;whiteSpace=wrap;html=1;rotation=90;" vertex="1" parent="1">
          <mxGeometry x="55" y="1175" width="220" height="80" as="geometry" />
        </mxCell>
        <mxCell id="bFQHDyqKPCQwZGILd-3Y-29" value="" style="rounded=0;whiteSpace=wrap;html=1;rotation=90;" vertex="1" parent="1">
          <mxGeometry x="232.5" y="1067" width="55" height="96" as="geometry" />
        </mxCell>
        <mxCell id="bFQHDyqKPCQwZGILd-3Y-35" value="" style="rounded=0;whiteSpace=wrap;html=1;" vertex="1" parent="1">
          <mxGeometry x="418" y="494" width="42" height="95" as="geometry" />
        </mxCell>
        <mxCell id="bFQHDyqKPCQwZGILd-3Y-37" value="" style="group" vertex="1" connectable="0" parent="1">
          <mxGeometry x="221" y="585" width="115" height="100" as="geometry" />
        </mxCell>
        <mxCell id="bFQHDyqKPCQwZGILd-3Y-14" value="" style="rounded=0;whiteSpace=wrap;html=1;rotation=90;" vertex="1" parent="bFQHDyqKPCQwZGILd-3Y-37">
          <mxGeometry x="35" y="20" width="45" height="115" as="geometry" />
        </mxCell>
        <mxCell id="bFQHDyqKPCQwZGILd-3Y-36" value="" style="rounded=0;whiteSpace=wrap;html=1;rotation=90;" vertex="1" parent="bFQHDyqKPCQwZGILd-3Y-37">
          <mxGeometry x="42" y="27.5" width="100" height="45" as="geometry" />
        </mxCell>
        <mxCell id="bFQHDyqKPCQwZGILd-3Y-38" value="" style="rounded=0;whiteSpace=wrap;html=1;rotation=90;" vertex="1" parent="1">
          <mxGeometry x="213" y="1257" width="15" height="30" as="geometry" />
        </mxCell>
        <mxCell id="bFQHDyqKPCQwZGILd-3Y-39" value="" style="rounded=0;whiteSpace=wrap;html=1;rotation=90;" vertex="1" parent="1">
          <mxGeometry x="263" y="1302" width="15" height="30" as="geometry" />
        </mxCell>
        <mxCell id="bFQHDyqKPCQwZGILd-3Y-40" value="" style="rounded=0;whiteSpace=wrap;html=1;rotation=90;fontStyle=1" vertex="1" parent="1">
          <mxGeometry x="292.5" y="1302" width="15" height="30" as="geometry" />
        </mxCell>
        <mxCell id="bFQHDyqKPCQwZGILd-3Y-41" value="" style="rounded=0;whiteSpace=wrap;html=1;rotation=90;" vertex="1" parent="1">
          <mxGeometry x="207.5" y="1277.5" width="45" height="50" as="geometry" />
        </mxCell>
        <mxCell id="bFQHDyqKPCQwZGILd-3Y-42" value="" style="rounded=0;whiteSpace=wrap;html=1;rotation=90;" vertex="1" parent="1">
          <mxGeometry x="263" y="1287" width="15" height="30" as="geometry" />
        </mxCell>
        <mxCell id="bFQHDyqKPCQwZGILd-3Y-43" value="" style="rounded=0;whiteSpace=wrap;html=1;rotation=90;" vertex="1" parent="1">
          <mxGeometry x="292.5" y="1287" width="15" height="30" as="geometry" />
        </mxCell>
        <mxCell id="bFQHDyqKPCQwZGILd-3Y-44" value="" style="rounded=0;whiteSpace=wrap;html=1;rotation=90;" vertex="1" parent="1">
          <mxGeometry x="263" y="1272" width="15" height="30" as="geometry" />
        </mxCell>
        <mxCell id="bFQHDyqKPCQwZGILd-3Y-45" value="" style="rounded=0;whiteSpace=wrap;html=1;rotation=90;" vertex="1" parent="1">
          <mxGeometry x="292.5" y="1272" width="15" height="30" as="geometry" />
        </mxCell>
        <mxCell id="bFQHDyqKPCQwZGILd-3Y-46" value="" style="rounded=0;whiteSpace=wrap;html=1;rotation=90;" vertex="1" parent="1">
          <mxGeometry x="243" y="1257" width="15" height="30" as="geometry" />
        </mxCell>
        <mxCell id="bFQHDyqKPCQwZGILd-3Y-47" value="" style="rounded=0;whiteSpace=wrap;html=1;rotation=90;" vertex="1" parent="1">
          <mxGeometry x="272.5" y="1257" width="15" height="30" as="geometry" />
        </mxCell>
        <mxCell id="bFQHDyqKPCQwZGILd-3Y-49" value="" style="rounded=0;whiteSpace=wrap;html=1;rotation=90;" vertex="1" parent="1">
          <mxGeometry x="297" y="1262" width="15" height="20" as="geometry" />
        </mxCell>
        <mxCell id="bFQHDyqKPCQwZGILd-3Y-51" value="" style="rounded=0;whiteSpace=wrap;html=1;rotation=90;" vertex="1" parent="1">
          <mxGeometry x="115" y="1155" width="100" height="80" as="geometry" />
        </mxCell>
        <mxCell id="bFQHDyqKPCQwZGILd-3Y-52" value="" style="rounded=0;whiteSpace=wrap;html=1;rotation=90;" vertex="1" parent="1">
          <mxGeometry x="145" y="1265" width="80" height="40" as="geometry" />
        </mxCell>
        <mxCell id="bFQHDyqKPCQwZGILd-3Y-53" value="" style="rounded=0;whiteSpace=wrap;html=1;rotation=-90;" vertex="1" parent="1">
          <mxGeometry x="164.5" y="1109" width="1" height="80" as="geometry" />
        </mxCell>
        <mxCell id="bFQHDyqKPCQwZGILd-3Y-55" value="" style="rounded=0;whiteSpace=wrap;html=1;rotation=0;" vertex="1" parent="1">
          <mxGeometry x="145" y="1109" width="1" height="80" as="geometry" />
        </mxCell>
        <mxCell id="bFQHDyqKPCQwZGILd-3Y-56" value="" style="rounded=0;whiteSpace=wrap;html=1;rotation=0;" vertex="1" parent="1">
          <mxGeometry x="184.5" y="1110" width="1" height="80" as="geometry" />
        </mxCell>
        <mxCell id="bFQHDyqKPCQwZGILd-3Y-57" value="" style="rounded=0;whiteSpace=wrap;html=1;" vertex="1" parent="1">
          <mxGeometry x="315" y="1105" width="80" height="220" as="geometry" />
        </mxCell>
        <mxCell id="bFQHDyqKPCQwZGILd-3Y-58" value="" style="rounded=0;whiteSpace=wrap;html=1;" vertex="1" parent="1">
          <mxGeometry x="125" y="1340" width="100" height="220" as="geometry" />
        </mxCell>
        <mxCell id="bFQHDyqKPCQwZGILd-3Y-61" value="" style="rounded=0;whiteSpace=wrap;html=1;" vertex="1" parent="1">
          <mxGeometry x="165" y="1480" width="60" height="80" as="geometry" />
        </mxCell>
        <mxCell id="bFQHDyqKPCQwZGILd-3Y-63" value="40cm" style="rounded=0;whiteSpace=wrap;html=1;fontSize=6;labelPosition=center;verticalLabelPosition=top;align=center;verticalAlign=bottom;" vertex="1" parent="1">
          <mxGeometry x="124.5" y="1556" width="40" height="1" as="geometry" />
        </mxCell>
        <mxCell id="bFQHDyqKPCQwZGILd-3Y-64" value="80cm" style="rounded=0;whiteSpace=wrap;html=1;rotation=0;fontSize=6;labelPosition=left;verticalLabelPosition=middle;align=right;verticalAlign=middle;" vertex="1" parent="1">
          <mxGeometry x="160" y="1480" width="1" height="80" as="geometry" />
        </mxCell>
        <mxCell id="bFQHDyqKPCQwZGILd-3Y-65" value="58.5cm" style="rounded=0;whiteSpace=wrap;html=1;fontSize=6;labelPosition=center;verticalLabelPosition=top;align=center;verticalAlign=bottom;" vertex="1" parent="1">
          <mxGeometry x="164.5" y="1475" width="60" height="1" as="geometry" />
        </mxCell>
        <mxCell id="bFQHDyqKPCQwZGILd-3Y-67" value="" style="rounded=0;whiteSpace=wrap;html=1;" vertex="1" parent="1">
          <mxGeometry x="125" y="1340" width="100" height="40" as="geometry" />
        </mxCell>
        <mxCell id="bFQHDyqKPCQwZGILd-3Y-69" value="" style="rounded=0;whiteSpace=wrap;html=1;" vertex="1" parent="1">
          <mxGeometry x="125" y="1380" width="100" height="10" as="geometry" />
        </mxCell>
        <mxCell id="bFQHDyqKPCQwZGILd-3Y-70" value="" style="ellipse;whiteSpace=wrap;html=1;aspect=fixed;" vertex="1" parent="1">
          <mxGeometry x="147.5" y="1382.5" width="5" height="5" as="geometry" />
        </mxCell>
        <mxCell id="bFQHDyqKPCQwZGILd-3Y-71" value="" style="ellipse;whiteSpace=wrap;html=1;aspect=fixed;" vertex="1" parent="1">
          <mxGeometry x="197.5" y="1382.5" width="5" height="5" as="geometry" />
        </mxCell>
        <mxCell id="bFQHDyqKPCQwZGILd-3Y-76" value="28cm" style="rounded=0;whiteSpace=wrap;html=1;fontSize=6;labelPosition=center;verticalLabelPosition=top;align=center;verticalAlign=bottom;" vertex="1" parent="1">
          <mxGeometry x="165.5" y="1510" width="28" height="1" as="geometry" />
        </mxCell>
        <mxCell id="bFQHDyqKPCQwZGILd-3Y-77" value="28cm" style="rounded=0;whiteSpace=wrap;html=1;fontSize=6;labelPosition=center;verticalLabelPosition=top;align=center;verticalAlign=bottom;" vertex="1" parent="1">
          <mxGeometry x="196.5" y="1510" width="28" height="1" as="geometry" />
        </mxCell>
        <mxCell id="bFQHDyqKPCQwZGILd-3Y-89" value="" style="rounded=0;whiteSpace=wrap;html=1;" vertex="1" parent="1">
          <mxGeometry x="225" y="1440" width="100" height="120" as="geometry" />
        </mxCell>
        <mxCell id="bFQHDyqKPCQwZGILd-3Y-78" value="" style="rounded=0;whiteSpace=wrap;html=1;" vertex="1" parent="1">
          <mxGeometry x="225" y="1500" width="25" height="15" as="geometry" />
        </mxCell>
        <mxCell id="bFQHDyqKPCQwZGILd-3Y-79" value="" style="rounded=0;whiteSpace=wrap;html=1;" vertex="1" parent="1">
          <mxGeometry x="250" y="1500" width="25" height="15" as="geometry" />
        </mxCell>
        <mxCell id="bFQHDyqKPCQwZGILd-3Y-80" value="" style="rounded=0;whiteSpace=wrap;html=1;" vertex="1" parent="1">
          <mxGeometry x="275" y="1500" width="25" height="15" as="geometry" />
        </mxCell>
        <mxCell id="bFQHDyqKPCQwZGILd-3Y-81" value="" style="rounded=0;whiteSpace=wrap;html=1;" vertex="1" parent="1">
          <mxGeometry x="300" y="1515" width="25" height="15" as="geometry" />
        </mxCell>
        <mxCell id="bFQHDyqKPCQwZGILd-3Y-82" value="" style="rounded=0;whiteSpace=wrap;html=1;" vertex="1" parent="1">
          <mxGeometry x="275" y="1515" width="25" height="15" as="geometry" />
        </mxCell>
        <mxCell id="bFQHDyqKPCQwZGILd-3Y-84" value="" style="rounded=0;whiteSpace=wrap;html=1;" vertex="1" parent="1">
          <mxGeometry x="300" y="1530" width="25" height="15" as="geometry" />
        </mxCell>
        <mxCell id="bFQHDyqKPCQwZGILd-3Y-85" value="" style="rounded=0;whiteSpace=wrap;html=1;" vertex="1" parent="1">
          <mxGeometry x="275" y="1530" width="25" height="15" as="geometry" />
        </mxCell>
        <mxCell id="bFQHDyqKPCQwZGILd-3Y-86" value="" style="rounded=0;whiteSpace=wrap;html=1;" vertex="1" parent="1">
          <mxGeometry x="300" y="1545" width="25" height="15" as="geometry" />
        </mxCell>
        <mxCell id="bFQHDyqKPCQwZGILd-3Y-87" value="" style="rounded=0;whiteSpace=wrap;html=1;" vertex="1" parent="1">
          <mxGeometry x="275" y="1545" width="25" height="15" as="geometry" />
        </mxCell>
        <mxCell id="bFQHDyqKPCQwZGILd-3Y-88" value="" style="rounded=0;whiteSpace=wrap;html=1;" vertex="1" parent="1">
          <mxGeometry x="300" y="1500" width="25" height="15" as="geometry" />
        </mxCell>
        <mxCell id="bFQHDyqKPCQwZGILd-3Y-90" value="&lt;font style=&quot;font-size: 6px;&quot;&gt;cajon&lt;/font&gt;" style="rounded=0;whiteSpace=wrap;html=1;" vertex="1" parent="1">
          <mxGeometry x="225" y="1470.5" width="100" height="30" as="geometry" />
        </mxCell>
        <mxCell id="bFQHDyqKPCQwZGILd-3Y-92" value="Reducir maximo a 60.cm profundidad (por zapatos)" style="text;html=1;strokeColor=none;fillColor=none;align=center;verticalAlign=middle;whiteSpace=wrap;rounded=0;" vertex="1" parent="1">
          <mxGeometry x="48.7" y="1560" width="60" height="30" as="geometry" />
        </mxCell>
        <mxCell id="bFQHDyqKPCQwZGILd-3Y-93" value="" style="rounded=0;whiteSpace=wrap;html=1;" vertex="1" parent="1">
          <mxGeometry x="225" y="1400" width="100" height="40" as="geometry" />
        </mxCell>
        <mxCell id="bFQHDyqKPCQwZGILd-3Y-94" value="repisa de 1/2 profundidad" style="text;html=1;strokeColor=none;fillColor=none;align=center;verticalAlign=middle;whiteSpace=wrap;rounded=0;fontSize=6;" vertex="1" parent="1">
          <mxGeometry x="232.5" y="1393" width="60" height="30" as="geometry" />
        </mxCell>
        <mxCell id="bFQHDyqKPCQwZGILd-3Y-97" value="cajÃ³n" style="text;html=1;align=center;verticalAlign=middle;resizable=0;points=[];autosize=1;strokeColor=none;fillColor=none;fontSize=6;" vertex="1" parent="1">
          <mxGeometry x="250" y="1440" width="40" height="20" as="geometry" />
        </mxCell>
        <mxCell id="bFQHDyqKPCQwZGILd-3Y-98" value="" style="rounded=0;whiteSpace=wrap;html=1;" vertex="1" parent="1">
          <mxGeometry x="325" y="1340" width="70" height="40" as="geometry" />
        </mxCell>
        <mxCell id="bFQHDyqKPCQwZGILd-3Y-100" value="" style="rounded=0;whiteSpace=wrap;html=1;" vertex="1" parent="1">
          <mxGeometry x="325" y="1480" width="70" height="80" as="geometry" />
        </mxCell>
        <mxCell id="bFQHDyqKPCQwZGILd-3Y-128" value="" style="rounded=0;whiteSpace=wrap;html=1;" vertex="1" parent="1">
          <mxGeometry x="325" y="1379.5" width="70" height="34" as="geometry" />
        </mxCell>
        <mxCell id="bFQHDyqKPCQwZGILd-3Y-129" value="" style="rounded=0;whiteSpace=wrap;html=1;" vertex="1" parent="1">
          <mxGeometry x="325" y="1414" width="70" height="33" as="geometry" />
        </mxCell>
        <mxCell id="bFQHDyqKPCQwZGILd-3Y-130" value="" style="rounded=0;whiteSpace=wrap;html=1;" vertex="1" parent="1">
          <mxGeometry x="325" y="1447" width="70" height="33" as="geometry" />
        </mxCell>
        <mxCell id="bFQHDyqKPCQwZGILd-3Y-131" value="." style="rounded=0;whiteSpace=wrap;html=1;rotation=0;fontSize=6;labelPosition=left;verticalLabelPosition=middle;align=right;verticalAlign=middle;" vertex="1" parent="1">
          <mxGeometry x="359.5" y="1380" width="1" height="100" as="geometry" />
        </mxCell>
        <mxCell id="bFQHDyqKPCQwZGILd-3Y-133" value="" style="rounded=0;whiteSpace=wrap;html=1;rotation=90;" vertex="1" parent="1">
          <mxGeometry x="247.5" y="1312" width="55" height="96" as="geometry" />
        </mxCell>
      </root>
    </mxGraphModel>
  </diagram>
</mxfile>
